<svg version="1.1" viewBox="0.0 0.0 128.0 128.0" fill="none" stroke="none" stroke-linecap="square" stroke-miterlimit="10" xmlns:xlink="http://www.w3.org/1999/xlink" xmlns="http://www.w3.org/2000/svg"><clipPath id="p.0"><path d="m0 0l128.0 0l0 128.0l-128.0 0l0 -128.0z" clip-rule="nonzero"/></clipPath><g clip-path="url(#p.0)"><path fill="#000000" fill-opacity="0.0" d="m0 0l128.0 0l0 128.0l-128.0 0z" fill-rule="evenodd"/><path fill="#ffffff" d="m4.1574802 24.105387l0 0c0 -11.016925 8.930982 -19.947906 19.947906 -19.947906l79.78923 0l0 0c5.290512 0 10.364342 2.1016483 14.105301 5.8426065c3.7409515 3.7409582 5.8426056 8.814786 5.8426056 14.1053l0 79.78923c0 11.016922 -8.9309845 19.947906 -19.947906 19.947906l-79.78923 0c-11.016925 0 -19.947906 -8.9309845 -19.947906 -19.947906z" fill-rule="evenodd"/><path stroke="#666666" stroke-width="8.0" stroke-linejoin="round" stroke-linecap="butt" d="m4.1574802 24.105387l0 0c0 -11.016925 8.930982 -19.947906 19.947906 -19.947906l79.78923 0l0 0c5.290512 0 10.364342 2.1016483 14.105301 5.8426065c3.7409515 3.7409582 5.8426056 8.814786 5.8426056 14.1053l0 79.78923c0 11.016922 -8.9309845 19.947906 -19.947906 19.947906l-79.78923 0c-11.016925 0 -19.947906 -8.9309845 -19.947906 -19.947906z" fill-rule="evenodd"/><path fill="#666666" d="m43.148438 92.799995l0 -57.265625l18.546875 0q10.546875 0 13.75 0.859375q4.921875 1.28125 8.234375 5.609375q3.328125 4.3125 3.328125 11.140625q0 5.28125 -1.921875 8.875q-1.90625 3.59375 -4.859375 5.640625q-2.9375 2.046875 -5.984375 2.71875q-4.140625 0.8125 -12.0 0.8125l-7.53125 0l0 21.609375l-11.5625 0zm11.5625 -47.578125l0 16.25l6.328125 0q6.828125 0 9.125 -0.890625q2.3125 -0.90625 3.625 -2.8125q1.3125 -1.921875 1.3125 -4.46875q0 -3.125 -1.84375 -5.15625q-1.828125 -2.03125 -4.640625 -2.53125q-2.078125 -0.390625 -8.328125 -0.390625l-5.578125 0z" fill-rule="nonzero"/></g></svg>