<svg version="1.1" viewBox="0.0 0.0 128.0 128.0" fill="none" stroke="none" stroke-linecap="square" stroke-miterlimit="10" xmlns:xlink="http://www.w3.org/1999/xlink" xmlns="http://www.w3.org/2000/svg"><clipPath id="p.0"><path d="m0 0l128.0 0l0 128.0l-128.0 0l0 -128.0z" clip-rule="nonzero"/></clipPath><g clip-path="url(#p.0)"><path fill="#000000" fill-opacity="0.0" d="m0 0l128.0 0l0 128.0l-128.0 0z" fill-rule="evenodd"/><path fill="#999999" d="m100.661415 18.014465l0 0c20.247543 20.247543 20.247543 53.075294 0 73.32284q-18.330704 18.330704 -36.661415 36.661415q-18.330708 -18.330711 -36.661415 -36.661415l0 0c-20.247541 -20.247543 -20.247541 -53.075294 0 -73.32284l0 0c20.247541 -20.247541 53.075294 -20.247541 73.32283 0z" fill-rule="evenodd"/><path fill="#ffffff" d="m48.88189 40.115486l0 0c0 -8.349503 6.768608 -15.118111 15.118111 -15.118111l0 0c4.009575 0 7.8549194 1.5927963 10.690117 4.427992c2.8351974 2.8351955 4.427994 6.6805477 4.427994 10.690119l0 0c0 8.349503 -6.768608 15.118111 -15.118111 15.118111l0 0c-8.349503 0 -15.118111 -6.768608 -15.118111 -15.118111z" fill-rule="evenodd"/></g></svg>