<svg version="1.1" viewBox="0.0 0.0 128.0 128.0" fill="none" stroke="none" stroke-linecap="square" stroke-miterlimit="10" xmlns:xlink="http://www.w3.org/1999/xlink" xmlns="http://www.w3.org/2000/svg"><clipPath id="p.0"><path d="m0 0l128.0 0l0 128.0l-128.0 0l0 -128.0z" clip-rule="nonzero"/></clipPath><g clip-path="url(#p.0)"><path fill="#000000" fill-opacity="0.0" d="m0 0l128.0 0l0 128.0l-128.0 0z" fill-rule="evenodd"/><path fill="#999999" d="m0 124.839836l0 -121.67967c0 -0.82142186 0.32630855 -1.6092004 0.9071415 -2.1900334c0.5808329 -0.58083296 1.3686116 -0.90714145 2.1900334 -0.90714145l15.485503 0c5.874634E-4 0 0.0010643005 4.7709048E-4 0.0010643005 0.0010656193l-0.0010643005 127.87295l0 0c0 5.950928E-4 -4.7683716E-4 0.0010681152 -0.0010662079 0.0010681152l-15.484437 -0.0010681152l0 0c-1.7105225 0 -3.097175 -1.3866501 -3.097175 -3.097168z" fill-rule="evenodd"/><path fill="#999999" d="m128.0 3.160167l0 121.67967c0 0.82141876 -0.3263092 1.6091995 -0.90714264 2.190033c-0.58083344 0.58083344 -1.3686066 0.907135 -2.190033 0.907135l-15.485504 0c-5.874634E-4 0 -0.0010604858 -4.7302246E-4 -0.0010604858 -0.0010604858l0.0010604858 -127.87295l0 0c0 -5.885251E-4 4.8065186E-4 -0.0010656156 0.0010681152 -0.0010656156l15.484436 0.0010656156l0 0c1.7105255 0 3.0971756 1.3866525 3.0971756 3.097175z" fill-rule="evenodd"/><path fill="#999999" d="m27.35433 0.057742782l18.582678 0l0 127.874016l-18.582678 0z" fill-rule="evenodd"/><path fill="#999999" d="m54.70866 0.057742782l18.582676 0l0 127.874016l-18.582676 0z" fill-rule="evenodd"/><path fill="#999999" d="m82.062996 0.062992126l18.582672 0l0 127.87401l-18.582672 0z" fill-rule="evenodd"/><path fill="#999999" d="m19.598427 1.1233821l0 0c0 -0.62042683 0.5029564 -1.1233821 1.1233826 -1.1233821l4.493393 0l0 0c0.2979393 0 0.5836754 0.11835598 0.7943516 0.329031c0.21067429 0.210675 0.329031 0.49641162 0.329031 0.7943511l0 16.335913c0 0.6204262 -0.5029564 1.1233826 -1.1233826 1.1233826l-4.493393 0c-0.6204262 0 -1.1233826 -0.5029564 -1.1233826 -1.1233826z" fill-rule="evenodd"/><path fill="#999999" d="m19.598427 37.59582l0 0c0 -0.6204262 0.5029564 -1.1233788 1.1233826 -1.1233788l4.493393 0l0 0c0.2979393 0 0.5836754 0.1183548 0.7943516 0.32902908c0.21067429 0.21067429 0.329031 0.49641037 0.329031 0.7943497l0 16.335915c0 0.6204262 -0.5029564 1.1233826 -1.1233826 1.1233826l-4.493393 0c-0.6204262 0 -1.1233826 -0.5029564 -1.1233826 -1.1233826z" fill-rule="evenodd"/><path fill="#999999" d="m19.598427 110.5407l0 0c0 -0.62042236 0.5029564 -1.1233826 1.1233826 -1.1233826l4.493393 0l0 0c0.2979393 0 0.5836754 0.1183548 0.7943516 0.3290329c0.21067429 0.2106781 0.329031 0.49641418 0.329031 0.7943497l0 16.335915c0 0.62043 -0.5029564 1.1233826 -1.1233826 1.1233826l-4.493393 0c-0.6204262 0 -1.1233826 -0.5029526 -1.1233826 -1.1233826z" fill-rule="evenodd"/><path fill="#999999" d="m19.598427 74.06826l0 0c0 -0.62042236 0.5029564 -1.1233749 1.1233826 -1.1233749l4.493393 0l0 0c0.2979393 0 0.5836754 0.1183548 0.7943516 0.32902527c0.21067429 0.2106781 0.329031 0.49641418 0.329031 0.7943497l0 16.335915c0 0.62043 -0.5029564 1.1233826 -1.1233826 1.1233826l-4.493393 0c-0.6204262 0 -1.1233826 -0.5029526 -1.1233826 -1.1233826z" fill-rule="evenodd"/><path fill="#999999" d="m46.95276 1.1181327l0 0c0 -0.6204268 0.5029526 -1.1233821 1.1233826 -1.1233821l4.493393 0l0 0c0.2979393 0 0.5836754 0.11835598 0.7943497 0.329031c0.21067429 0.21067503 0.3290329 0.4964116 0.3290329 0.7943511l0 16.335913c0 0.6204262 -0.5029564 1.1233807 -1.1233826 1.1233807l-4.493393 0c-0.62043 0 -1.1233826 -0.5029545 -1.1233826 -1.1233807z" fill-rule="evenodd"/><path fill="#999999" d="m46.95276 37.590572l0 0c0 -0.6204262 0.5029526 -1.1233826 1.1233826 -1.1233826l4.493393 0l0 0c0.2979393 0 0.5836754 0.11835861 0.7943497 0.3290329c0.21067429 0.21067429 0.3290329 0.49641037 0.3290329 0.7943497l0 16.335915c0 0.6204262 -0.5029564 1.1233826 -1.1233826 1.1233826l-4.493393 0c-0.62043 0 -1.1233826 -0.5029564 -1.1233826 -1.1233826z" fill-rule="evenodd"/><path fill="#999999" d="m46.95276 110.53545l0 0c0 -0.62042236 0.5029526 -1.1233826 1.1233826 -1.1233826l4.493393 0l0 0c0.2979393 0 0.5836754 0.1183548 0.7943497 0.3290329c0.21067429 0.2106781 0.3290329 0.49641418 0.3290329 0.7943497l0 16.335915c0 0.62043 -0.5029564 1.1233826 -1.1233826 1.1233826l-4.493393 0c-0.62043 0 -1.1233826 -0.5029526 -1.1233826 -1.1233826z" fill-rule="evenodd"/><path fill="#999999" d="m46.95276 74.06301l0 0c0 -0.62042236 0.5029526 -1.1233749 1.1233826 -1.1233749l4.493393 0l0 0c0.2979393 0 0.5836754 0.1183548 0.7943497 0.32902527c0.21067429 0.2106781 0.3290329 0.49641418 0.3290329 0.7943497l0 16.335915c0 0.62043 -0.5029564 1.1233826 -1.1233826 1.1233826l-4.493393 0c-0.62043 0 -1.1233826 -0.5029526 -1.1233826 -1.1233826z" fill-rule="evenodd"/><path fill="#999999" d="m74.30709 1.1181327l0 0c0 -0.6204268 0.5029526 -1.1233821 1.1233826 -1.1233821l4.493393 0l0 0c0.2979355 0 0.58367157 0.11835598 0.7943497 0.329031c0.21067047 0.21067503 0.3290329 0.4964116 0.3290329 0.7943511l0 16.335913c0 0.6204262 -0.5029602 1.1233807 -1.1233826 1.1233807l-4.493393 0c-0.62043 0 -1.1233826 -0.5029545 -1.1233826 -1.1233807z" fill-rule="evenodd"/><path fill="#999999" d="m74.30709 37.590572l0 0c0 -0.6204262 0.5029526 -1.1233826 1.1233826 -1.1233826l4.493393 0l0 0c0.2979355 0 0.58367157 0.11835861 0.7943497 0.3290329c0.21067047 0.21067429 0.3290329 0.49641037 0.3290329 0.7943497l0 16.335915c0 0.6204262 -0.5029602 1.1233826 -1.1233826 1.1233826l-4.493393 0c-0.62043 0 -1.1233826 -0.5029564 -1.1233826 -1.1233826z" fill-rule="evenodd"/><path fill="#999999" d="m74.30709 110.53545l0 0c0 -0.62042236 0.5029526 -1.1233826 1.1233826 -1.1233826l4.493393 0l0 0c0.2979355 0 0.58367157 0.1183548 0.7943497 0.3290329c0.21067047 0.2106781 0.3290329 0.49641418 0.3290329 0.7943497l0 16.335915c0 0.62043 -0.5029602 1.1233826 -1.1233826 1.1233826l-4.493393 0c-0.62043 0 -1.1233826 -0.5029526 -1.1233826 -1.1233826z" fill-rule="evenodd"/><path fill="#999999" d="m74.30709 74.06301l0 0c0 -0.62042236 0.5029526 -1.1233749 1.1233826 -1.1233749l4.493393 0l0 0c0.2979355 0 0.58367157 0.1183548 0.7943497 0.32902527c0.21067047 0.2106781 0.3290329 0.49641418 0.3290329 0.7943497l0 16.335915c0 0.62043 -0.5029602 1.1233826 -1.1233826 1.1233826l-4.493393 0c-0.62043 0 -1.1233826 -0.5029526 -1.1233826 -1.1233826z" fill-rule="evenodd"/><path fill="#999999" d="m101.66142 1.1181327l0 0c0 -0.6204268 0.5029526 -1.1233821 1.1233749 -1.1233821l4.4934006 0l0 0c0.2979355 0 0.58367157 0.11835598 0.7943497 0.329031c0.21067047 0.21067503 0.32902527 0.4964116 0.32902527 0.7943511l0 16.335913c0 0.6204262 -0.5029526 1.1233807 -1.1233749 1.1233807l-4.4934006 0c-0.62042236 0 -1.1233749 -0.5029545 -1.1233749 -1.1233807z" fill-rule="evenodd"/><path fill="#999999" d="m101.66142 37.590572l0 0c0 -0.6204262 0.5029526 -1.1233826 1.1233749 -1.1233826l4.4934006 0l0 0c0.2979355 0 0.58367157 0.11835861 0.7943497 0.3290329c0.21067047 0.21067429 0.32902527 0.49641037 0.32902527 0.7943497l0 16.335915c0 0.6204262 -0.5029526 1.1233826 -1.1233749 1.1233826l-4.4934006 0c-0.62042236 0 -1.1233749 -0.5029564 -1.1233749 -1.1233826z" fill-rule="evenodd"/><path fill="#999999" d="m101.66142 110.53545l0 0c0 -0.62042236 0.5029526 -1.1233826 1.1233749 -1.1233826l4.4934006 0l0 0c0.2979355 0 0.58367157 0.1183548 0.7943497 0.3290329c0.21067047 0.2106781 0.32902527 0.49641418 0.32902527 0.7943497l0 16.335915c0 0.62043 -0.5029526 1.1233826 -1.1233749 1.1233826l-4.4934006 0c-0.62042236 0 -1.1233749 -0.5029526 -1.1233749 -1.1233826z" fill-rule="evenodd"/><path fill="#999999" d="m101.66142 74.06301l0 0c0 -0.62042236 0.5029526 -1.1233749 1.1233749 -1.1233749l4.4934006 0l0 0c0.2979355 0 0.58367157 0.1183548 0.7943497 0.32902527c0.21067047 0.2106781 0.32902527 0.49641418 0.32902527 0.7943497l0 16.335915c0 0.62043 -0.5029526 1.1233826 -1.1233749 1.1233826l-4.4934006 0c-0.62042236 0 -1.1233749 -0.5029526 -1.1233749 -1.1233826z" fill-rule="evenodd"/></g></svg>