<svg version="1.1" viewBox="0.0 0.0 128.0 128.0" fill="none" stroke="none" stroke-linecap="square" stroke-miterlimit="10" xmlns:xlink="http://www.w3.org/1999/xlink" xmlns="http://www.w3.org/2000/svg"><clipPath id="p.0"><path d="m0 0l128.0 0l0 128.0l-128.0 0l0 -128.0z" clip-rule="nonzero"/></clipPath><g clip-path="url(#p.0)"><path fill="#000000" fill-opacity="0.0" d="m0 0l128.0 0l0 128.0l-128.0 0z" fill-rule="evenodd"/><path fill="#ffffff" d="m2.488189 64.0l0 0c0 -33.972034 27.539776 -61.51181 61.51181 -61.51181l0 0c16.31395 0 31.959717 6.48069 43.495422 18.016392c11.535698 11.535702 18.016388 27.181473 18.016388 43.49542l0 0c0 33.97204 -27.539772 61.51181 -61.51181 61.51181l0 0c-33.972034 0 -61.51181 -27.539772 -61.51181 -61.51181z" fill-rule="evenodd"/><path stroke="#434343" stroke-width="4.0" stroke-linejoin="round" stroke-linecap="butt" d="m2.488189 64.0l0 0c0 -33.972034 27.539776 -61.51181 61.51181 -61.51181l0 0c16.31395 0 31.959717 6.48069 43.495422 18.016392c11.535698 11.535702 18.016388 27.181473 18.016388 43.49542l0 0c0 33.97204 -27.539772 61.51181 -61.51181 61.51181l0 0c-33.972034 0 -61.51181 -27.539772 -61.51181 -61.51181z" fill-rule="evenodd"/><path fill="#000000" d="m81.69531 57.36249q0 3.125 -1.171875 6.203125q-1.171875 3.0624962 -3.640625 5.484371q-2.453125 2.421875 -6.28125 3.921875q-3.828125 1.5 -9.140625 1.5l-6.328125 0l0 18.328125l-6.953125 0l0 -51.062496l14.375 0q3.796875 0 7.265625 0.84375q3.484375 0.84375 6.109375 2.71875q2.640625 1.875 4.203125 4.84375q1.5625 2.96875 1.5625 7.21875zm-7.21875 0.3125q0 -4.921875 -3.234375 -7.53125q-3.21875 -2.625 -9.0 -2.625l-7.109375 0l0 21.015621l6.484375 0q6.171875 0 9.515625 -2.6875q3.34375 -2.7031212 3.34375 -8.171871z" fill-rule="nonzero"/></g></svg>