<svg version="1.1" viewBox="0.0 0.0 128.0 128.0" fill="none" stroke="none" stroke-linecap="square" stroke-miterlimit="10" xmlns:xlink="http://www.w3.org/1999/xlink" xmlns="http://www.w3.org/2000/svg"><clipPath id="p.0"><path d="m0 0l128.0 0l0 128.0l-128.0 0l0 -128.0z" clip-rule="nonzero"/></clipPath><g clip-path="url(#p.0)"><path fill="#000000" fill-opacity="0.0" d="m0 0l128.0 0l0 128.0l-128.0 0z" fill-rule="evenodd"/><path fill="#999999" d="m3.4803565 102.84029l0 0c0 -1.6757355 1.3584492 -3.0341873 3.0341814 -3.0341873l114.97101 0c0.804718 0 1.576477 0.31967163 2.1454926 0.88869476c0.56902313 0.5690155 0.88869476 1.3407745 0.88869476 2.1454926l0 12.13636c0 1.6757278 -1.3584518 3.0341797 -3.0341873 3.0341797l-114.97101 0c-1.6757321 0 -3.0341814 -1.3584518 -3.0341814 -3.0341797z" fill-rule="evenodd"/><path fill="#999999" d="m3.480315 74.28224l0 0c0 -2.4382172 1.976567 -4.4147873 4.4147863 -4.4147873l29.501135 0c1.1708755 0 2.2937927 0.46512604 3.121727 1.2930603c0.82793045 0.82793427 1.2930603 1.9508514 1.2930603 3.121727l0 17.658615c0 2.4382172 -1.9765663 4.4147873 -4.4147873 4.4147873l-29.501135 0c-2.4382195 0 -4.4147863 -1.9765701 -4.4147863 -4.4147873z" fill-rule="evenodd"/><path fill="#999999" d="m44.83455 74.28224l0 0c0 -2.4382172 1.9765663 -4.4147873 4.4147873 -4.4147873l29.501137 0c1.1708755 0 2.2937927 0.46512604 3.121727 1.2930603c0.82792664 0.82793427 1.2930603 1.9508514 1.2930603 3.121727l0 17.658615c0 2.4382172 -1.9765701 4.4147873 -4.4147873 4.4147873l-29.501137 0c-2.438221 0 -4.4147873 -1.9765701 -4.4147873 -4.4147873z" fill-rule="evenodd"/><path fill="#999999" d="m86.18878 74.28224l0 0c0 -2.4382172 1.9765701 -4.4147873 4.4147873 -4.4147873l29.501137 0c1.1708755 0 2.2937927 0.46512604 3.121727 1.2930603c0.82792664 0.82793427 1.2930603 1.9508514 1.2930603 3.121727l0 17.658615c0 2.4382172 -1.9765701 4.4147873 -4.4147873 4.4147873l-29.501137 0c-2.4382172 0 -4.4147873 -1.9765701 -4.4147873 -4.4147873z" fill-rule="evenodd"/><path fill="#999999" d="m3.480315 14.404287l0 0c0 -2.438219 1.976567 -4.4147863 4.4147863 -4.4147863l29.501135 0c1.1708755 0 2.2937927 0.46512794 3.121727 1.2930613c0.82793045 0.8279333 1.2930603 1.9508514 1.2930603 3.121725l0 17.658617c0 2.4382172 -1.9765663 4.4147873 -4.4147873 4.4147873l-29.501135 0c-2.4382195 0 -4.4147863 -1.9765701 -4.4147863 -4.4147873z" fill-rule="evenodd"/><path fill="#999999" d="m44.83455 14.404287l0 0c0 -2.438219 1.9765663 -4.4147863 4.4147873 -4.4147863l29.501137 0c1.1708755 0 2.2937927 0.46512794 3.121727 1.2930613c0.82792664 0.8279333 1.2930603 1.9508514 1.2930603 3.121725l0 17.658617c0 2.4382172 -1.9765701 4.4147873 -4.4147873 4.4147873l-29.501137 0c-2.438221 0 -4.4147873 -1.9765701 -4.4147873 -4.4147873z" fill-rule="evenodd"/><path fill="#999999" d="m86.18878 14.404287l0 0c0 -2.438219 1.9765701 -4.4147863 4.4147873 -4.4147863l29.501137 0c1.1708755 0 2.2937927 0.46512794 3.121727 1.2930613c0.82792664 0.8279333 1.2930603 1.9508514 1.2930603 3.121725l0 17.658617c0 2.4382172 -1.9765701 4.4147873 -4.4147873 4.4147873l-29.501137 0c-2.4382172 0 -4.4147873 -1.9765701 -4.4147873 -4.4147873z" fill-rule="evenodd"/><path fill="#999999" d="m3.480315 44.34392l0 0c0 -2.438221 1.976567 -4.4147873 4.4147863 -4.4147873l50.383026 0c1.1708755 0 2.2937927 0.46512604 3.121727 1.2930603c0.82793427 0.82793427 1.2930603 1.9508514 1.2930603 3.121727l0 17.658615c0 2.438221 -1.9765663 4.4147835 -4.4147873 4.4147835l-50.383026 0c-2.4382195 0 -4.4147863 -1.9765625 -4.4147863 -4.4147835z" fill-rule="evenodd"/><path fill="#999999" d="m65.30708 44.34392l0 0c0 -2.438221 1.9765701 -4.4147873 4.4147873 -4.4147873l50.383026 0c1.1708755 0 2.2937927 0.46512604 3.121727 1.2930603c0.82793427 0.82793427 1.2930603 1.9508514 1.2930603 3.121727l0 17.658615c0 2.438221 -1.9765625 4.4147835 -4.4147873 4.4147835l-50.383026 0c-2.4382172 0 -4.4147873 -1.9765625 -4.4147873 -4.4147835z" fill-rule="evenodd"/></g></svg>