<svg version="1.1" viewBox="0.0 0.0 128.0 128.0" fill="none" stroke="none" stroke-linecap="square" stroke-miterlimit="10" xmlns:xlink="http://www.w3.org/1999/xlink" xmlns="http://www.w3.org/2000/svg"><clipPath id="p.0"><path d="m0 0l128.0 0l0 128.0l-128.0 0l0 -128.0z" clip-rule="nonzero"/></clipPath><g clip-path="url(#p.0)"><path fill="#000000" fill-opacity="0.0" d="m0 0l128.0 0l0 128.0l-128.0 0z" fill-rule="evenodd"/><path fill="#666666" d="m17.16273 15.609163l0 0c0 -4.266206 3.4584427 -7.724649 7.7246494 -7.724649l78.219986 0c2.048706 0 4.013504 0.81384516 5.462158 2.2624974c1.4486465 1.4486532 2.262497 3.4134474 2.262497 5.4621515l0 77.49558c0 4.2662125 -3.4584427 7.724655 -7.724655 7.724655l-78.219986 0c-4.2662067 0 -7.7246494 -3.4584427 -7.7246494 -7.724655z" fill-rule="evenodd"/><path fill="#666666" d="m17.16273 106.70333l0 0c0 -3.2441254 2.6298866 -5.874016 5.874016 -5.874016l81.921265 0c1.5578842 0 3.0519638 0.6188736 4.153557 1.7204666c1.1015854 1.1015854 1.720459 2.595665 1.720459 4.153549l0 0l0 0c0 3.244133 -2.6298904 5.874016 -5.874016 5.874016l-81.921265 0l0 0c-3.2441292 0 -5.874016 -2.6298828 -5.874016 -5.874016z" fill-rule="evenodd"/><path fill="#666666" d="m95.71967 107.647545l0 0c0 -0.6939316 0.56253815 -1.2564697 1.2564621 -1.2564697l12.605179 0c0.3332367 0 0.6528244 0.13237762 0.88845825 0.36801147c0.23563385 0.23563385 0.36801147 0.55522156 0.36801147 0.88845825l0 19.09336c0 0.6939316 -0.5625458 1.2564697 -1.2564697 1.2564697l-12.605179 0c-0.69392395 0 -1.2564621 -0.56253815 -1.2564621 -1.2564697z" fill-rule="evenodd"/><path fill="#ffffff" d="m22.366724 20.692556l0 0c0 -3.706728 3.0048962 -6.711624 6.711624 -6.711624l69.85235 0c1.7800293 0 3.4871597 0.7071161 4.7458344 1.9657888c1.2586746 1.2586737 1.9657898 2.9658022 1.9657898 4.7458353l0 67.33266c0 3.706726 -3.004898 6.711624 -6.711624 6.711624l-69.85235 0c-3.706728 0 -6.711624 -3.004898 -6.711624 -6.711624z" fill-rule="evenodd"/><path fill="#666666" d="m17.16273 107.647545l0 0c0 -0.6939316 0.56254005 -1.2564697 1.2564659 -1.2564697l12.605179 0c0.3332348 0 0.6528225 0.13237762 0.88845634 0.36801147c0.23563385 0.23563385 0.36800766 0.55522156 0.36800766 0.88845825l0 19.09336c0 0.6939316 -0.56253624 1.2564697 -1.256464 1.2564697l-12.605179 0c-0.69392586 0 -1.2564659 -0.56253815 -1.2564659 -1.2564697z" fill-rule="evenodd"/><path fill="#666666" d="m2.727034 9.963255l11.086615 2.7716532l0 83.244095l-11.086615 2.7716522z" fill-rule="evenodd"/><path stroke="#666666" stroke-width="4.0" stroke-linejoin="round" stroke-linecap="butt" d="m2.727034 9.963255l11.086615 2.7716532l0 83.244095l-11.086615 2.7716522z" fill-rule="evenodd"/><path fill="#666666" d="m125.267715 98.750656l-11.0866165 -2.7716522l0 -83.244095l11.0866165 -2.7716532z" fill-rule="evenodd"/><path stroke="#666666" stroke-width="4.0" stroke-linejoin="round" stroke-linecap="butt" d="m125.267715 98.750656l-11.0866165 -2.7716522l0 -83.244095l11.0866165 -2.7716532z" fill-rule="evenodd"/><path fill="#666666" d="m32.280838 67.73758l0 0c0 -1.8714142 1.517086 -3.3884964 3.3885002 -3.3884964l23.742687 0c0.89868546 0 1.7605629 0.35700226 2.3960304 0.9924698c0.6354675 0.6354675 0.9924698 1.497345 0.9924698 2.3960266l0 22.293869c0 1.8714142 -1.5170822 3.3884964 -3.3885002 3.3884964l-23.742687 0c-1.8714142 0 -3.3885002 -1.5170822 -3.3885002 -3.3884964z" fill-rule="evenodd"/><path fill="#666666" d="m65.19948 67.73758l0 0c0 -1.8714142 1.5170822 -3.3884964 3.3884964 -3.3884964l23.742683 0c0.89868927 0 1.7605667 0.35700226 2.3960342 0.9924698c0.6354675 0.6354675 0.9924698 1.497345 0.9924698 2.3960266l0 22.293869c0 1.8714142 -1.5170822 3.3884964 -3.388504 3.3884964l-23.742683 0c-1.8714142 0 -3.3884964 -1.5170822 -3.3884964 -3.3884964z" fill-rule="evenodd"/><path fill="#666666" d="m48.737534 36.82157l0 0c0 -1.871418 1.5170822 -3.3885002 3.3885002 -3.3885002l23.742687 0c0.89868164 0 1.7605591 0.35700226 2.3960266 0.9924698c0.6354675 0.6354675 0.9924698 1.497345 0.9924698 2.3960304l0 22.293865c0 1.871418 -1.5170822 3.3885002 -3.3884964 3.3885002l-23.742687 0c-1.871418 0 -3.3885002 -1.5170822 -3.3885002 -3.3885002z" fill-rule="evenodd"/></g></svg>