<svg version="1.1" viewBox="0.0 0.0 128.0 128.0" fill="none" stroke="none" stroke-linecap="square" stroke-miterlimit="10" xmlns:xlink="http://www.w3.org/1999/xlink" xmlns="http://www.w3.org/2000/svg"><clipPath id="p.0"><path d="m0 0l128.0 0l0 128.0l-128.0 0l0 -128.0z" clip-rule="nonzero"/></clipPath><g clip-path="url(#p.0)"><path fill="#000000" fill-opacity="0.0" d="m0 0l128.0 0l0 128.0l-128.0 0z" fill-rule="evenodd"/><path fill="#434343" d="m0.002184252 46.34485l127.99678 0l0 68.95479l-127.99678 0z" fill-rule="evenodd"/><path stroke="#434343" stroke-width="1.0" stroke-linejoin="round" stroke-linecap="butt" d="m0.002184252 46.34485l127.99678 0l0 68.95479l-127.99678 0z" fill-rule="evenodd"/><path fill="#999999" d="m18.37743 60.27222l0 0c0 -5.170639 4.1916313 -9.36227 9.36227 -9.36227l46.3173 0c2.4830322 0 4.864357 0.98638153 6.620125 2.7421455c1.7557678 1.7557678 2.7421494 4.1370964 2.7421494 6.620125l0 37.447956c0 5.170639 -4.191635 9.362274 -9.362274 9.362274l-46.3173 0c-5.170639 0 -9.36227 -4.191635 -9.36227 -9.362274z" fill-rule="evenodd"/><path fill="#999999" d="m86.56354 63.399384l32.75267 0l0 0c1.7373505 0 3.4035416 0.69016266 4.6320343 1.9186554c1.2284927 1.2284927 1.9186554 2.8946838 1.9186554 4.6320343l0 37.18734l-39.30336 0z" fill-rule="evenodd"/><path fill="#ffffff" d="m31.906796 106.923134l0 0c0 -3.9139252 3.1728592 -7.0867767 7.0867805 -7.0867767l0 0c1.879528 0 3.6820793 0.74663544 5.0111084 2.0756683c1.3290291 1.3290253 2.0756683 3.1315765 2.0756683 5.0111084l0 0c0 3.9139175 -3.1728592 7.0867767 -7.0867767 7.0867767l0 0c-3.9139214 0 -7.0867805 -3.1728592 -7.0867805 -7.0867767z" fill-rule="evenodd"/><path stroke="#666666" stroke-width="1.0" stroke-linejoin="round" stroke-linecap="butt" d="m31.906796 106.923134l0 0c0 -3.9139252 3.1728592 -7.0867767 7.0867805 -7.0867767l0 0c1.879528 0 3.6820793 0.74663544 5.0111084 2.0756683c1.3290291 1.3290253 2.0756683 3.1315765 2.0756683 5.0111084l0 0c0 3.9139175 -3.1728592 7.0867767 -7.0867767 7.0867767l0 0c-3.9139214 0 -7.0867805 -3.1728592 -7.0867805 -7.0867767z" fill-rule="evenodd"/><path fill="#ffffff" d="m100.44296 106.923134l0 0c0 -3.9139252 3.1728592 -7.0867767 7.0867767 -7.0867767l0 0c1.8795319 0 3.6820831 0.74663544 5.011116 2.0756683c1.3290253 1.3290253 2.0756683 3.1315765 2.0756683 5.0111084l0 0c0 3.9139175 -3.1728592 7.0867767 -7.0867844 7.0867767l0 0c-3.9139175 0 -7.0867767 -3.1728592 -7.0867767 -7.0867767z" fill-rule="evenodd"/><path stroke="#666666" stroke-width="1.0" stroke-linejoin="round" stroke-linecap="butt" d="m100.44296 106.923134l0 0c0 -3.9139252 3.1728592 -7.0867767 7.0867767 -7.0867767l0 0c1.8795319 0 3.6820831 0.74663544 5.011116 2.0756683c1.3290253 1.3290253 2.0756683 3.1315765 2.0756683 5.0111084l0 0c0 3.9139175 -3.1728592 7.0867767 -7.0867844 7.0867767l0 0c-3.9139175 0 -7.0867767 -3.1728592 -7.0867767 -7.0867767z" fill-rule="evenodd"/><path fill="#434343" d="m0.002184252 46.34485l63.998386 -33.651325l63.99839 33.651325z" fill-rule="evenodd"/><path stroke="#434343" stroke-width="1.0" stroke-linejoin="round" stroke-linecap="butt" d="m0.002184252 46.34485l63.998386 -33.651325l63.99839 33.651325z" fill-rule="evenodd"/></g></svg>